<svg id="Component_20_5" data-name="Component 20 – 5" xmlns="http://www.w3.org/2000/svg" width="25.385" height="27.197" viewBox="0 0 25.385 27.197">
  <g id="ab-test">
    <g id="Component_21_1" data-name="Component 21 – 1">
      <path id="Path_85390" data-name="Path 85390" d="M413,926.61q0-4.9,0-9.8c0-.749.337-1.081,1.094-1.081,3.446,0,6.892,0,10.339.008.306,0,.374-.089.36-.374-.023-.461-.009-.925-.005-1.388a.908.908,0,1,1,1.812.009c0,.491.014.982,0,1.473-.009.229.066.277.283.277q5.2-.01,10.4,0c.791,0,1.113.323,1.113,1.118q0,9.758,0,19.516c0,.809-.319,1.124-1.136,1.124-3.437,0-6.874,0-10.31-.008-.3,0-.358.086-.345.359.022.471.01.944.005,1.416a.907.907,0,1,1-1.811-.008c0-.491-.015-.983.005-1.473.01-.241-.065-.292-.3-.292q-4.943.012-9.886.006c-.208,0-.415,0-.623,0A.911.911,0,0,1,413,936.5q0-4.234,0-8.469Zm11.786,2.746c0-2.03,0-4.06.006-6.089,0-.24-.066-.292-.3-.291q-4.7.012-9.4,0c-.214,0-.284.045-.284.275q.012,6.075,0,12.15c0,.228.066.277.282.276q4.7-.01,9.4,0c.23,0,.3-.048.3-.29C424.777,933.378,424.782,931.367,424.782,929.356Zm11.786-.016c0-2.02,0-4.041,0-6.061,0-.219-.03-.306-.283-.3q-4.716.015-9.431,0c-.207,0-.268.046-.268.262q.011,6.09,0,12.179c0,.219.065.261.269.26q4.716-.01,9.431,0c.217,0,.283-.049.282-.276C436.563,933.381,436.567,931.361,436.567,929.34Zm-4.99-11.8c-1.576,0-3.153,0-4.729,0-.187,0-.261.032-.259.242q.017,1.571,0,3.143c0,.2.054.25.251.25q4.743-.009,9.486,0c.207,0,.245-.068.244-.257-.009-1.038-.011-2.077,0-3.115,0-.213-.055-.266-.266-.264C434.73,917.546,433.154,917.541,431.577,917.541ZM419.8,921.168c1.567,0,3.134-.006,4.7.006.242,0,.293-.068.29-.3-.013-1.029-.011-2.058,0-3.086,0-.2-.047-.253-.249-.252q-4.743.01-9.486,0c-.2,0-.248.061-.247.254q.014,1.557,0,3.115c0,.209.048.269.263.267C416.644,921.163,418.22,921.168,419.8,921.168Z" transform="translate(-412.996 -913.009)" fill="#3d3d3d"/>
    </g>
    <path id="Path_85391" data-name="Path 85391" d="M469.158,1143.223a.9.9,0,0,1-.56.845.876.876,0,0,1-.971-.184.4.4,0,0,1-.125-.151c-.154-.508-.537-.517-.976-.508-1.1.023-2.21.014-3.314,0a.367.367,0,0,0-.393.234,1.77,1.77,0,0,1-.158.267.9.9,0,0,1-1.223.278.885.885,0,0,1-.332-1.185c.244-.458.516-.9.777-1.348q1.169-2,2.339-4.009a.919.919,0,0,1,1.711,0q1.513,2.59,3.024,5.182A1.131,1.131,0,0,1,469.158,1143.223Zm-5.135-1.818h2.113c-.339-.58-.661-1.131-.982-1.682-.064-.111-.11-.069-.157.012Z" transform="translate(-458.279 -1124.194)" fill="#3d3d3d"/>
    <path id="Path_85392" data-name="Path 85392" d="M684.993,1140.57q0-1.289,0-2.578a.917.917,0,0,1,1.013-1.02c.7,0,1.4,0,2.1,0a2.265,2.265,0,0,1,2.23,2.89.25.25,0,0,0,.1.306,2.222,2.222,0,0,1,.777,2.527,2.315,2.315,0,0,1-2.229,1.529q-1.487,0-2.974,0a.917.917,0,0,1-1.013-1.02Q684.991,1141.888,684.993,1140.57Zm3.033,1.841c.311,0,.622,0,.933,0,.33,0,.571-.2.564-.462a.5.5,0,0,0-.554-.444c-.5,0-1,0-1.5,0-.69,0-.684,0-.669.7,0,.158.044.213.206.208C687.347,1142.4,687.687,1142.412,688.026,1142.412Zm-.465-3.624c-.794,0-.794,0-.755.723a.18.18,0,0,1,0,.028c-.009.1.024.156.14.154.414-.005.829.008,1.243-.008a.473.473,0,0,0,.428-.451.482.482,0,0,0-.435-.445C687.976,1138.776,687.768,1138.788,687.561,1138.788Z" transform="translate(-669.58 -1124.28)" fill="#3d3d3d"/>
    <path id="Path_85393" data-name="Path 85393" d="M477.925,1009.01a.906.906,0,1,1-.907.9A.909.909,0,0,1,477.925,1009.01Z" transform="translate(-473.391 -1003.57)" fill="#3d3d3d"/>
    <path id="Path_85394" data-name="Path 85394" d="M526.828,1009.912a.905.905,0,1,1-.9-.9A.909.909,0,0,1,526.828,1009.912Z" transform="translate(-518.67 -1003.57)" fill="#3d3d3d"/>
    <path id="Path_85395" data-name="Path 85395" d="M574.824,1009.924a.906.906,0,1,1-.888-.916A.909.909,0,0,1,574.824,1009.924Z" transform="translate(-563.945 -1003.567)" fill="#3d3d3d"/>
  </g>
</svg>
