<svg xmlns="http://www.w3.org/2000/svg" width="35.031" height="29.076" viewBox="0 0 35.031 29.076"><defs><style>.a{fill:#3d3d3d;opacity:0.6;}</style></defs><path class="a" d="M485.213,1163.295a14.354,14.354,0,0,0-5.594-10.522,20.151,20.151,0,0,0-11.137-4.59c-.761-.075-.926-.352-.91-1.054.045-1.869.022-3.741.01-5.611a2.024,2.024,0,0,0-2.214-2.238,4.666,4.666,0,0,0-3.286,1.2c-3.222,2.865-6.451,5.722-9.657,8.605a6.242,6.242,0,0,0-.114,9.491c2.337,2.176,4.79,4.227,7.193,6.333q1.319,1.156,2.642,2.305a4.632,4.632,0,0,0,3.383,1.134,2,2,0,0,0,2.058-2.157c.011-1.948.024-3.9-.01-5.845-.012-.662.136-.932.87-.857a19.886,19.886,0,0,1,9.47,3.007,9.221,9.221,0,0,1,2.561,2.583c.974,1.487,2.065,2.06,3.18,1.7.975-.311,1.55-1.474,1.553-3.14C485.213,1163.59,485.213,1163.538,485.213,1163.295Zm-3.019-.955a16.787,16.787,0,0,0-3.472-2.661,24.941,24.941,0,0,0-12.03-2.7c-1.324-.017-1.82.49-1.823,1.84,0,1.948.005,3.9,0,5.845,0,.213.129.512-.145.626-.239.1-.438-.105-.614-.255-.75-.641-1.5-1.289-2.243-1.933-2.479-2.136-4.977-4.251-7.432-6.414a3.494,3.494,0,0,1,.013-5.6q1.372-1.211,2.751-2.417,3.4-2.981,6.8-5.958c.21-.183.443-.485.725-.358.308.138.136.512.138.776.015,2.026,0,4.052.017,6.078a1.488,1.488,0,0,0,1.624,1.67,22.4,22.4,0,0,1,2.249.171,17.059,17.059,0,0,1,10.976,5.782A9.822,9.822,0,0,1,482.194,1162.339Z" transform="translate(-450.182 -1139.279)"/></svg>