<svg xmlns="http://www.w3.org/2000/svg" width="57.61" height="57.611" viewBox="0 0 57.61 57.611"><defs><style>.a{fill:#475993;}</style></defs><path class="a" d="M49.849,0H7.765A7.763,7.763,0,0,0,0,7.763V49.847A7.763,7.763,0,0,0,7.765,57.61H28.521l.035-20.587H23.208a1.262,1.262,0,0,1-1.262-1.257L21.92,29.13a1.262,1.262,0,0,1,1.262-1.267h5.339V21.452c0-7.441,4.545-11.493,11.183-11.493H45.15a1.262,1.262,0,0,1,1.262,1.262v5.6a1.262,1.262,0,0,1-1.261,1.262l-3.343,0c-3.61,0-4.309,1.715-4.309,4.233v5.551h7.932a1.262,1.262,0,0,1,1.253,1.411L45.9,35.91a1.262,1.262,0,0,1-1.253,1.113h-7.11L37.5,57.611h12.35a7.763,7.763,0,0,0,7.763-7.763V7.763A7.763,7.763,0,0,0,49.849,0Z" transform="translate(-0.002)"/></svg>