<svg xmlns="http://www.w3.org/2000/svg" width="141.655" height="141.656" viewBox="0 0 141.655 141.656"><defs><style>.a{fill:#f5f5f5;}</style></defs><path class="a" d="M122.568,0H19.09A19.089,19.089,0,0,0,0,19.088V122.567A19.088,19.088,0,0,0,19.09,141.656H70.125l.087-50.62H57.061a3.1,3.1,0,0,1-3.1-3.091L53.9,71.628A3.1,3.1,0,0,1,57,68.513H70.126V52.746c0-18.3,11.174-28.259,27.5-28.259h13.393a3.1,3.1,0,0,1,3.1,3.1V41.349a3.1,3.1,0,0,1-3.1,3.1l-8.219,0c-8.876,0-10.6,4.218-10.6,10.408V68.513h19.5a3.1,3.1,0,0,1,3.081,3.468L112.854,88.3a3.1,3.1,0,0,1-3.081,2.738H92.29l-.087,50.62h30.367a19.088,19.088,0,0,0,19.088-19.088V19.088A19.089,19.089,0,0,0,122.568,0Z" transform="translate(-0.002)"/></svg>