<svg xmlns="http://www.w3.org/2000/svg" width="25.734" height="24.644" viewBox="0 0 25.734 24.644">
  <g id="fav" transform="translate(0.198 0.2)">
    <path id="Path_85401" data-name="Path 85401" d="M685.772,1132.992a3.636,3.636,0,0,1-1.117,1.323q-1.985,1.926-4,3.824a1.476,1.476,0,0,0-.482,1.452c.375,2.1.723,4.208,1.1,6.31a1.214,1.214,0,0,1-.455,1.316,1.193,1.193,0,0,1-1.363.018c-1.876-.994-3.762-1.97-5.632-2.975a1.428,1.428,0,0,0-1.49-.007c-1.829.987-3.674,1.944-5.514,2.91a1.829,1.829,0,0,1-.786.281,1.19,1.19,0,0,1-1.184-1.427c.155-.954.329-1.9.494-2.857.211-1.218.419-2.436.634-3.653a1.33,1.33,0,0,0-.413-1.281c-1.549-1.488-3.082-2.993-4.629-4.483a1.237,1.237,0,0,1-.443-1.323,1.207,1.207,0,0,1,1.125-.862c2.149-.3,4.295-.616,6.443-.917a1.254,1.254,0,0,0,1.016-.734c.933-1.894,1.875-3.785,2.791-5.687a1.628,1.628,0,0,1,1.075-1.019h.338a1.645,1.645,0,0,1,1.028.977c.914,1.89,1.866,3.761,2.784,5.649a1.364,1.364,0,0,0,1.145.807c2.08.292,4.155.62,6.236.9a1.419,1.419,0,0,1,1.3.987Zm-22.936.113-.083.13a1.324,1.324,0,0,1,.262.156q1.927,1.866,3.847,3.739a2.662,2.662,0,0,1,.829,2.39c-.175,1.166-.394,2.326-.595,3.489q-.191,1.109-.382,2.22a.387.387,0,0,0,.278-.081q2.388-1.252,4.775-2.505a2.723,2.723,0,0,1,2.62-.024c1.182.6,2.354,1.218,3.532,1.826.512.264,1.027.524,1.58.805-.01-.138-.009-.216-.022-.292-.3-1.715-.6-3.43-.9-5.144a2.874,2.874,0,0,1,.776-2.7c.683-.685,1.4-1.338,2.075-2.027.644-.655,1.259-1.34,1.887-2.012.014.038-.047.011-.11,0-1.624-.233-3.245-.5-4.875-.682a3.24,3.24,0,0,1-2.891-2.036c-.2-.475-.448-.93-.676-1.394-.544-1.1-1.09-2.209-1.653-3.35-.071.133-.125.23-.174.329l-2.341,4.744a2.831,2.831,0,0,1-2.154,1.61c-.974.168-1.957.284-2.936.424Z" transform="translate(-660.436 -1123.2)" fill="#3d3d3d" stroke="#3d3d3d" stroke-width="0.4"/>
  </g>
</svg>
