<svg id="google-light" xmlns="http://www.w3.org/2000/svg" width="149.709" height="149.708" viewBox="0 0 149.709 149.708">
  <path id="Path_85308" data-name="Path 85308" d="M33.179,188.309l-5.211,19.454-19.047.4a74.985,74.985,0,0,1-.551-69.9h0l16.957,3.109,7.428,16.855a44.673,44.673,0,0,0,.42,30.077Z" transform="translate(0 -97.839)" fill="#f5f5f5" opacity="0.57"/>
  <path id="Path_85309" data-name="Path 85309" d="M333.529,208.176a74.826,74.826,0,0,1-26.684,72.358l0,0-21.358-1.09-3.023-18.87a44.613,44.613,0,0,0,19.195-22.781H261.628V208.176h71.9Z" transform="translate(-185.128 -147.305)" fill="#f5f5f5" opacity="0.75"/>
  <path id="Path_85310" data-name="Path 85310" d="M143.3,352.162l0,0a74.878,74.878,0,0,1-112.8-22.9l24.258-19.857A44.519,44.519,0,0,0,118.919,332.2Z" transform="translate(-21.588 -218.938)" fill="#f5f5f5"/>
  <path id="Path_85311" data-name="Path 85311" d="M142.888,17.233l-24.25,19.853A44.513,44.513,0,0,0,53.013,60.393L28.628,40.429h0a74.87,74.87,0,0,1,114.264-23.2Z" transform="translate(-20.254)" fill="#f5f5f5"/>
</svg>
