<svg id="google_sign" data-name="google sign" xmlns="http://www.w3.org/2000/svg" width="31.047" height="31.047" viewBox="0 0 31.047 31.047">
  <path id="Path_85308" data-name="Path 85308" d="M6.881,148.646,5.8,152.68l-3.95.084a15.551,15.551,0,0,1-.114-14.5h0l3.517.645,1.54,3.5a9.264,9.264,0,0,0,.087,6.238Z" transform="translate(0 -129.884)" fill="#fbbb00"/>
  <path id="Path_85309" data-name="Path 85309" d="M276.539,208.176a15.517,15.517,0,0,1-5.534,15.006h0l-4.429-.226-.627-3.913a9.252,9.252,0,0,0,3.981-4.724h-8.3v-6.141h14.911Z" transform="translate(-245.763 -195.553)" fill="#518ef8"/>
  <path id="Path_85310" data-name="Path 85310" d="M53.9,318.275h0a15.528,15.528,0,0,1-23.392-4.749l5.031-4.118a9.232,9.232,0,0,0,13.3,4.727Z" transform="translate(-28.659 -290.647)" fill="#28b446"/>
  <path id="Path_85311" data-name="Path 85311" d="M52.32,3.574,47.291,7.691a9.231,9.231,0,0,0-13.609,4.834l-5.057-4.14h0a15.527,15.527,0,0,1,23.7-4.811Z" transform="translate(-26.888)" fill="#f14336"/>
</svg>
