<svg id="info" xmlns="http://www.w3.org/2000/svg" width="29" height="29" viewBox="0 0 29 29">
  <g id="info-2" data-name="info">
    <circle id="Ellipse_6" data-name="Ellipse 6" cx="14.5" cy="14.5" r="14.5" fill="rgba(228,228,228,0.82)"/>
    <path id="Path_85497" data-name="Path 85497" d="M2.75-3.889Q1.4-12.031,1.4-12.676a1.648,1.648,0,0,1,.521-1.268,1.685,1.685,0,0,1,1.176-.483,1.587,1.587,0,0,1,1.2.516A1.707,1.707,0,0,1,4.78-12.7q0,.666-1.354,8.809Zm1.837,2.6a1.449,1.449,0,0,1-.44,1.063,1.437,1.437,0,0,1-1.053.44A1.449,1.449,0,0,1,2.03-.226a1.449,1.449,0,0,1-.44-1.063,1.437,1.437,0,0,1,.44-1.053,1.449,1.449,0,0,1,1.063-.44,1.437,1.437,0,0,1,1.053.44A1.437,1.437,0,0,1,4.587-1.289Z" transform="translate(11.67 22)" fill="#3d3d3d"/>
  </g>
</svg>
