<svg xmlns="http://www.w3.org/2000/svg" width="153.948" height="153.947" viewBox="0 0 153.948 153.947"><defs><style>.a{fill:#f5f5f5;}</style></defs><g transform="translate(0 0)"><path class="a" d="M.463,45.238c.375-8.194,1.676-13.789,3.579-18.684A37.726,37.726,0,0,1,12.92,12.92,37.736,37.736,0,0,1,26.554,4.039c4.9-1.9,10.491-3.2,18.684-3.574C53.447.089,56.07,0,76.974,0S100.5.089,108.71.463C116.9.837,122.5,2.139,127.394,4.041a37.726,37.726,0,0,1,13.634,8.878,37.732,37.732,0,0,1,8.881,13.633c1.9,4.9,3.2,10.492,3.574,18.684.376,8.21.465,10.832.465,31.736s-.089,23.528-.465,31.737c-.373,8.192-1.675,13.788-3.578,18.684a39.361,39.361,0,0,1-22.512,22.511c-4.9,1.9-10.491,3.2-18.684,3.579-8.21.375-10.832.463-31.736.463s-23.527-.088-31.736-.463c-8.194-.375-13.788-1.675-18.684-3.579A39.353,39.353,0,0,1,4.041,127.394C2.137,122.5.837,116.9.463,108.71.089,100.5,0,97.878,0,76.974S.089,53.447.463,45.238Zm13.856,62.841c.342,7.505,1.6,11.581,2.65,14.293a25.49,25.49,0,0,0,14.609,14.609c2.712,1.054,6.788,2.308,14.293,2.65,8.115.371,10.55.449,31.1.449s22.989-.078,31.105-.449c7.5-.342,11.58-1.6,14.293-2.65a25.5,25.5,0,0,0,14.609-14.609c1.054-2.712,2.308-6.788,2.65-14.293.37-8.116.449-10.551.449-31.1S140,53.987,139.63,45.87c-.343-7.505-1.6-11.581-2.65-14.293a23.864,23.864,0,0,0-5.759-8.851,23.832,23.832,0,0,0-8.851-5.758c-2.712-1.055-6.788-2.308-14.293-2.651-8.116-.37-10.551-.449-31.1-.449h0c-20.553,0-22.988.079-31.105.45-7.505.342-11.58,1.6-14.293,2.65a23.866,23.866,0,0,0-8.85,5.758,23.832,23.832,0,0,0-5.758,8.851c-1.055,2.712-2.309,6.788-2.651,14.293-.37,8.116-.449,10.551-.449,31.1S13.947,99.962,14.318,108.079Zm0,0" transform="translate(0 0)"/><path class="a" d="M164.067,124.539a39.527,39.527,0,1,1-39.528,39.528A39.528,39.528,0,0,1,164.067,124.539Zm0,65.185a25.658,25.658,0,1,0-25.659-25.659A25.658,25.658,0,0,0,164.067,189.724Zm0,0" transform="translate(-87.092 -87.093)"/><path class="a" d="M361.93,97.863a9.237,9.237,0,1,0,9.236-9.238A9.237,9.237,0,0,0,361.93,97.863Zm0,0" transform="translate(-335.281 -61.978)"/></g></svg>