<svg xmlns="http://www.w3.org/2000/svg" xmlns:xlink="http://www.w3.org/1999/xlink" width="56.322" height="56.322" viewBox="0 0 56.322 56.322"><defs><style>.a{fill:url(#a);}.b{fill:url(#b);}.c{fill:url(#c);}</style><linearGradient id="a" x1="0.916" y1="0.916" x2="0.084" y2="0.084" gradientUnits="objectBoundingBox"><stop offset="0" stop-color="#ffd600"/><stop offset="0.5" stop-color="#ff0100"/><stop offset="1" stop-color="#d800b9"/></linearGradient><linearGradient id="b" x1="0.854" y1="0.854" x2="0.146" y2="0.146" gradientUnits="objectBoundingBox"><stop offset="0" stop-color="#ff6400"/><stop offset="0.5" stop-color="#ff0100"/><stop offset="1" stop-color="#fd0056"/></linearGradient><linearGradient id="c" x1="0.854" y1="0.854" x2="0.146" y2="0.146" gradientUnits="objectBoundingBox"><stop offset="0" stop-color="#f30072"/><stop offset="1" stop-color="#e50097"/></linearGradient></defs><g transform="translate(0 0)"><path class="a" d="M.169,16.55A20.675,20.675,0,0,1,1.478,9.715,13.8,13.8,0,0,1,4.727,4.727,13.806,13.806,0,0,1,9.715,1.478,20.671,20.671,0,0,1,16.55.17c3-.138,3.963-.17,11.611-.17s8.607.033,11.611.169a20.677,20.677,0,0,1,6.836,1.309A13.8,13.8,0,0,1,51.6,4.727a13.8,13.8,0,0,1,3.249,4.988,20.673,20.673,0,0,1,1.308,6.836c.138,3,.17,3.963.17,11.611s-.033,8.608-.17,11.611a20.67,20.67,0,0,1-1.309,6.836,14.4,14.4,0,0,1-8.236,8.236,20.664,20.664,0,0,1-6.836,1.309c-3,.137-3.963.169-11.611.169s-8.607-.032-11.611-.169a20.666,20.666,0,0,1-6.836-1.309,14.4,14.4,0,0,1-8.236-8.236A20.668,20.668,0,0,1,.169,39.772C.032,36.768,0,35.809,0,28.161S.032,19.554.169,16.55ZM5.238,39.541a15.581,15.581,0,0,0,.969,5.229,9.326,9.326,0,0,0,5.345,5.345,15.581,15.581,0,0,0,5.229.969c2.969.136,3.86.164,11.379.164s8.411-.028,11.38-.164a15.586,15.586,0,0,0,5.229-.969,9.33,9.33,0,0,0,5.345-5.345,15.581,15.581,0,0,0,.969-5.229c.135-2.969.164-3.86.164-11.379s-.029-8.41-.164-11.38a15.592,15.592,0,0,0-.969-5.229,8.731,8.731,0,0,0-2.107-3.238A8.719,8.719,0,0,0,44.77,6.208a15.578,15.578,0,0,0-5.229-.97c-2.969-.135-3.86-.164-11.379-.164h0c-7.519,0-8.41.029-11.38.165a15.584,15.584,0,0,0-5.229.969A8.732,8.732,0,0,0,8.315,8.314a8.719,8.719,0,0,0-2.106,3.238,15.567,15.567,0,0,0-.97,5.229c-.135,2.969-.164,3.86-.164,11.379S5.1,36.571,5.238,39.541Zm0,0" transform="translate(0 0)"/><path class="b" d="M139,124.539A14.461,14.461,0,1,1,124.539,139,14.461,14.461,0,0,1,139,124.539Zm0,23.848A9.387,9.387,0,1,0,129.613,139,9.387,9.387,0,0,0,139,148.387Zm0,0" transform="translate(-110.839 -110.839)"/><path class="c" d="M361.93,92a3.379,3.379,0,1,0,3.379-3.38A3.379,3.379,0,0,0,361.93,92Zm0,0" transform="translate(-352.18 -78.876)"/></g></svg>