<svg id="linkedin-light" xmlns="http://www.w3.org/2000/svg" width="126.017" height="126.017" viewBox="0 0 126.017 126.017">
  <path id="Path_85503" data-name="Path 85503" d="M89.9,93.822v-.005h.031V47.6c0-22.609-4.867-40.026-31.3-40.026-12.707,0-21.234,6.973-24.715,13.584h-.368V9.685H8.489V93.817h26.1V52.158c0-10.969,2.079-21.575,15.663-21.575,13.384,0,13.584,12.518,13.584,22.279V93.822Z" transform="translate(36.084 32.195)" fill="#f5f5f5"/>
  <path id="Path_85504" data-name="Path 85504" d="M.4,7.977H26.523V92.109H.4Z" transform="translate(1.683 33.908)" fill="#f5f5f5"/>
  <path id="Path_85505" data-name="Path 85505" d="M15.132,0A15.2,15.2,0,1,0,30.265,15.132,15.137,15.137,0,0,0,15.132,0Z" fill="#f5f5f5"/>
</svg>
