<svg id="linkedin" xmlns="http://www.w3.org/2000/svg" width="55.248" height="55.248" viewBox="0 0 55.248 55.248">
  <path id="Path_85503" data-name="Path 85503" d="M44.182,45.387v0H44.2V25.122c0-9.912-2.134-17.548-13.722-17.548a12.03,12.03,0,0,0-10.836,5.955h-.161V8.5H8.489V45.384H19.93V27.12c0-4.809.912-9.459,6.867-9.459,5.868,0,5.955,5.488,5.955,9.767V45.387Z" transform="translate(11.053 9.861)" fill="#0077b5"/>
  <path id="Path_85504" data-name="Path 85504" d="M.4,7.977H11.851V44.862H.4Z" transform="translate(0.516 10.386)" fill="#0077b5"/>
  <path id="Path_85505" data-name="Path 85505" d="M6.634,0a6.666,6.666,0,1,0,6.634,6.634A6.636,6.636,0,0,0,6.634,0Z" fill="#0077b5"/>
</svg>
