<svg id="lock" xmlns="http://www.w3.org/2000/svg" width="19.203" height="24.87" viewBox="0 0 19.203 24.87">
  <path id="Union_80" data-name="Union 80" d="M16.381,24.87H2.822A2.872,2.872,0,0,1,0,21.955V12.046A2.873,2.873,0,0,1,2.822,9.132h1.7v-4a5.081,5.081,0,1,1,10.162,0v4h1.7A2.873,2.873,0,0,1,19.2,12.046v9.909A2.872,2.872,0,0,1,16.381,24.87ZM9.607,13.9a1.774,1.774,0,0,0-1.75,1.791,1.813,1.813,0,0,0,.8,1.512v2.129a.942.942,0,1,0,1.883,0V17.2a1.8,1.8,0,0,0-.936-3.3ZM9.6,1.943A3.2,3.2,0,0,0,6.406,5.136v4H12.8v-4A3.2,3.2,0,0,0,9.6,1.943Z" fill="#565656"/>
</svg>
