<svg xmlns="http://www.w3.org/2000/svg" width="256.322" height="35.011" viewBox="0 0 256.322 35.011"><defs><style>.a{fill:#077ef5;}.b{fill:#3d3d3d;}</style></defs><g transform="translate(0)"><path class="a" d="M-110.231,2.478c5.339,0,10-3.673,10-9.656V-24.066H-105.5V-7.519c0,3.559-2.272,5-4.733,5-2.423,0-4.7-1.439-4.7-5V-24.066h-5.263V-7.178C-120.19-1.2-115.533,2.478-110.231,2.478Zm24.575-18.592c-1.742,0-4.544,1.06-5.3,3.446V-15.66h-4.96V2.023h4.96V-7.254c0-3.219,2.2-4.165,3.976-4.165,1.7,0,3.37,1.25,3.37,4.014V2.023h4.96V-7.67C-78.613-12.972-81.037-16.114-85.656-16.114Zm13.745-2.651a3.057,3.057,0,0,0,3.143-2.991,3.026,3.026,0,0,0-3.143-2.954,3.05,3.05,0,0,0-3.143,2.954A3.081,3.081,0,0,0-71.911-18.765Zm2.5,20.788V-15.66h-4.96V2.023Zm13.1.454a8.956,8.956,0,0,0,7.46-3.787L-52.6-3.922a4.668,4.668,0,0,1-3.673,1.78,4.587,4.587,0,0,1-4.7-4.733,4.517,4.517,0,0,1,4.7-4.62A4.668,4.668,0,0,1-52.6-9.715l3.749-2.613a8.956,8.956,0,0,0-7.46-3.787c-5.15,0-9.694,3.635-9.694,9.239S-61.46,2.478-56.31,2.478Zm18.63,0a9.244,9.244,0,0,0,9.5-9.277,9.252,9.252,0,0,0-9.5-9.315,9.252,9.252,0,0,0-9.5,9.315A9.244,9.244,0,0,0-37.68,2.478Zm0-4.62A4.475,4.475,0,0,1-42.149-6.8a4.485,4.485,0,0,1,4.468-4.7,4.485,4.485,0,0,1,4.468,4.7A4.475,4.475,0,0,1-37.68-2.142Zm23.022-13.972c-2.2,0-4.2,1.287-5.188,4.241V-15.66h-4.923V2.023h4.96V-4.035c0-5.036,1.742-7.422,4.279-7.422a5.147,5.147,0,0,1,2.537.644l1.136-4.733A6.3,6.3,0,0,0-14.658-16.114Zm15.222,0c-1.742,0-4.544,1.06-5.3,3.446V-15.66H-9.7V2.023h4.96V-7.254c0-3.219,2.2-4.165,3.976-4.165,1.7,0,3.37,1.25,3.37,4.014V2.023h4.96V-7.67C7.607-12.972,5.184-16.114.564-16.114Z" transform="translate(120.19 24.71)"/><path class="b" d="M-105.684,2.175A12.821,12.821,0,0,0-95.162-3.179l-3.969-2.883a7.6,7.6,0,0,1-6.4,3.333,8.157,8.157,0,0,1-8.051-8.463,8.155,8.155,0,0,1,8.088-8.425,7.577,7.577,0,0,1,6.366,3.333l3.969-2.883a12.821,12.821,0,0,0-10.522-5.355,13.241,13.241,0,0,0-13.106,13.33A13.226,13.226,0,0,0-105.684,2.175Zm21.568,0A9.141,9.141,0,0,0-74.717-7a9.149,9.149,0,0,0-9.4-9.211A9.149,9.149,0,0,0-93.515-7,9.141,9.141,0,0,0-84.116,2.175Zm0-4.568A4.425,4.425,0,0,1-88.535-7a4.435,4.435,0,0,1,4.418-4.643A4.435,4.435,0,0,1-79.7-7,4.425,4.425,0,0,1-84.116-2.393ZM-60.825-16.21a7.023,7.023,0,0,0-5.617,2.584v-2.134h-4.905V10.3h4.905V-.446a6.947,6.947,0,0,0,5.617,2.621c4.493,0,8.575-3.557,8.575-9.211C-52.251-12.615-56.332-16.21-60.825-16.21Zm-.936,13.817A4.635,4.635,0,0,1-66.292-7a4.6,4.6,0,0,1,4.531-4.643A4.564,4.564,0,0,1-57.268-7,4.532,4.532,0,0,1-61.762-2.393Zm19.7-3.258-4.119-10.11h-5.392L-44.649.078-48.806,10.3h5.242l10.784-26.062h-5.28Zm12.057,7.714A3.078,3.078,0,0,0-26.826-.97a3.072,3.072,0,0,0-3.183-3,3.029,3.029,0,0,0-3.108,3A3.037,3.037,0,0,0-30.008,2.063ZM-.876,1.726l-9.586-25.8h-5.617L-25.7,1.726h5.542L-18.1-4.452H-8.44l2.1,6.178ZM-13.271-18.756l3.3,9.773h-6.59Zm16.625-.075a3.023,3.023,0,0,0,3.108-2.958A2.993,2.993,0,0,0,3.355-24.71,3.016,3.016,0,0,0,.247-21.789,3.047,3.047,0,0,0,3.355-18.831ZM5.826,1.726V-15.761H.921V1.726Z" transform="translate(249.859 24.71)"/></g></svg>