<svg xmlns="http://www.w3.org/2000/svg" width="124.854" height="153.672" viewBox="0 0 124.854 153.672"><defs><style>.a{fill:#f5f5f5;}</style></defs><path class="a" d="M112.52,0C70.4,0,48,26.99,48,56.419c0,13.649,7.626,30.669,19.834,36.066,1.854.836,2.862.48,3.275-1.239.365-1.306,1.969-7.6,2.747-10.565a2.717,2.717,0,0,0-.653-2.67c-4.053-4.687-7.271-13.226-7.271-21.237,0-20.526,16.319-40.456,44.087-40.456,24.012,0,40.811,15.6,40.811,37.911,0,25.213-13.341,42.655-30.678,42.655-9.6,0-16.741-7.53-14.475-16.847,2.737-11.094,8.107-23.023,8.107-31.024,0-7.175-4.053-13.111-12.333-13.111-9.768,0-17.692,9.672-17.692,22.658a32.3,32.3,0,0,0,2.92,13.821s-9.663,39.034-11.459,46.325c-3.035,12.342.413,32.33.711,34.049a1.013,1.013,0,0,0,1.844.471c.951-1.249,12.63-17.913,15.906-29.958,1.191-4.389,6.08-22.187,6.08-22.187,3.218,5.811,12.506,10.681,22.4,10.681,29.429,0,50.695-25.866,50.695-57.966C172.753,23.023,146.416,0,112.52,0" transform="translate(-48.004)"/></svg>