<svg xmlns="http://www.w3.org/2000/svg" width="45.76" height="56.322" viewBox="0 0 45.76 56.322"><defs><style>.a{fill:#d32f2f;}</style></defs><path class="a" d="M71.65,0C56.213,0,48,9.892,48,20.678c0,5,2.8,11.24,7.269,13.219.679.306,1.049.176,1.2-.454.134-.479.722-2.785,1.007-3.872a1,1,0,0,0-.239-.979,12.827,12.827,0,0,1-2.665-7.783c0-7.523,5.981-14.827,16.158-14.827,8.8,0,14.958,5.717,14.958,13.895,0,9.241-4.89,15.634-11.244,15.634-3.517,0-6.136-2.76-5.305-6.175,1-4.066,2.971-8.438,2.971-11.371,0-2.63-1.486-4.805-4.52-4.805-3.58,0-6.484,3.545-6.484,8.3a11.839,11.839,0,0,0,1.07,5.066s-3.541,14.306-4.2,16.978c-1.112,4.524.151,11.849.261,12.479a.371.371,0,0,0,.676.172c.349-.458,4.629-6.565,5.83-10.98.437-1.609,2.228-8.132,2.228-8.132,1.179,2.13,4.583,3.915,8.209,3.915,10.786,0,18.58-9.48,18.58-21.245C93.725,8.438,84.073,0,71.65,0" transform="translate(-48.004)"/></svg>