<svg xmlns="http://www.w3.org/2000/svg" width="33" height="33" viewBox="0 0 33 33">
  <g id="press-space" transform="translate(-412 -331)">
    <rect id="Rectangle_21245" data-name="Rectangle 21245" width="33" height="33" rx="4" transform="translate(412 331)" fill="#cdf2ff"/>
    <path id="Path_85405" data-name="Path 85405" d="M450.182,1150.9a6.947,6.947,0,0,1,2.707-5.093,9.753,9.753,0,0,1,5.39-2.222c.368-.036.448-.17.44-.51-.022-.9-.011-1.81-.005-2.716a.979.979,0,0,1,1.072-1.083,2.259,2.259,0,0,1,1.59.581c1.559,1.387,3.122,2.77,4.674,4.165a3.021,3.021,0,0,1,.055,4.594c-1.131,1.053-2.318,2.046-3.481,3.065q-.638.559-1.279,1.116a2.242,2.242,0,0,1-1.638.549.966.966,0,0,1-1-1.044c-.005-.943-.012-1.886,0-2.829.006-.321-.066-.451-.421-.415a9.624,9.624,0,0,0-4.584,1.455,4.461,4.461,0,0,0-1.24,1.25c-.471.719-1,1-1.539.825-.472-.151-.75-.713-.752-1.52C450.182,1151.045,450.182,1151.02,450.182,1150.9Zm1.461-.462a8.128,8.128,0,0,1,1.68-1.288,12.072,12.072,0,0,1,5.823-1.307c.641-.008.881.237.882.891,0,.943,0,1.886,0,2.829,0,.1-.062.248.07.3.116.048.212-.051.3-.124.363-.31.724-.624,1.086-.935,1.2-1.034,2.409-2.057,3.6-3.1a1.691,1.691,0,0,0-.006-2.71q-.664-.586-1.331-1.17-1.644-1.443-3.289-2.883c-.1-.089-.214-.235-.351-.173s-.066.248-.067.375c-.007.981,0,1.961-.008,2.942a.72.72,0,0,1-.786.808,10.847,10.847,0,0,0-1.089.083,8.257,8.257,0,0,0-5.312,2.8A4.754,4.754,0,0,0,451.643,1150.44Z" transform="translate(-30.159 -798.815)" fill="#3d3d3d"/>
  </g>
</svg>
