<svg id="remix" xmlns="http://www.w3.org/2000/svg" width="18.029" height="21.561" viewBox="0 0 18.029 21.561">
  <path id="Path_85408" data-name="Path 85408" d="M267.581,311.548c.3.3.605.551.609.992a.906.906,0,0,1-.442.875.831.831,0,0,1-1.027-.063c-.813-.768-1.61-1.557-2.37-2.377a.765.765,0,0,1,.054-1.062,25,25,0,0,1,2.389-2.351.779.779,0,0,1,1.108.1.921.921,0,0,1,.132,1.225,4.788,4.788,0,0,1-.464.555.969.969,0,0,0,.619.082c1.954.006,4.978,0,6.932,0a6.939,6.939,0,0,1,7.06,7.031c0,.366.02,1.8-.009,2.168a.941.941,0,0,1-1.01.921.909.909,0,0,1-.9-.949,27.662,27.662,0,0,0-.116-3.318,4.967,4.967,0,0,0-4.874-3.922c-2.036-.011-5.141,0-7.176,0A.677.677,0,0,0,267.581,311.548Z" transform="translate(-264.161 -307.371)" fill="#565656"/>
  <path id="Path_85409" data-name="Path 85409" d="M278.919,385.906c-2.132,0-5.333-.021-7.465.006a6.927,6.927,0,0,1-5.232-2.22c-1.655-1.694-2.018-4.862-1.833-7.113a.867.867,0,0,1,.957-.823.934.934,0,0,1,.908.958c.03.63-.037,2.341.063,2.958a4.815,4.815,0,0,0,4.536,4.3c2.323.165,5.737.035,8.194.035-.221-.238-.39-.4-.532-.579a.906.906,0,0,1,.08-1.265.836.836,0,0,1,1.254-.034q1.117,1.041,2.179,2.139a1.026,1.026,0,0,1-.09,1.478c-.623.644-1.26,1.275-1.9,1.9a.958.958,0,0,1-1.451.067c-.43-.427-.391-.926.121-1.428a2.14,2.14,0,0,1,.3-.208Z" transform="translate(-264.323 -366.449)" fill="#565656"/>
</svg>
