<svg xmlns="http://www.w3.org/2000/svg" width="84" height="84" viewBox="0 0 84 84">
  <g id="h-right" transform="translate(-1314 -471)">
    <circle id="Ellipse_28" data-name="Ellipse 28" cx="42" cy="42" r="42" transform="translate(1314 471)" fill="#fff"/>
    <g id="Group_81418" data-name="Group 81418" transform="translate(83.426 75.923)">
      <g id="Component_27_5" data-name="Component 27 – 5" transform="translate(1255.955 422.54)">
        <path id="Path_85403" data-name="Path 85403" d="M450.182,1163.295a14.354,14.354,0,0,1,5.594-10.522,20.15,20.15,0,0,1,11.137-4.59c.761-.075.926-.352.91-1.054-.045-1.869-.022-3.741-.01-5.611a2.024,2.024,0,0,1,2.214-2.238,4.666,4.666,0,0,1,3.286,1.2c3.222,2.865,6.451,5.722,9.657,8.6a6.242,6.242,0,0,1,.114,9.491c-2.337,2.176-4.79,4.227-7.193,6.333q-1.319,1.156-2.642,2.305a4.632,4.632,0,0,1-3.383,1.134,2,2,0,0,1-2.058-2.157c-.011-1.948-.024-3.9.01-5.845.012-.662-.136-.932-.87-.857a19.887,19.887,0,0,0-9.471,3.007,9.219,9.219,0,0,0-2.561,2.583c-.974,1.487-2.065,2.06-3.18,1.7-.975-.311-1.55-1.474-1.553-3.14C450.181,1163.59,450.182,1163.538,450.182,1163.295Zm3.019-.955a16.788,16.788,0,0,1,3.472-2.661,24.942,24.942,0,0,1,12.03-2.7c1.324-.017,1.82.49,1.823,1.84,0,1.948-.005,3.9,0,5.845,0,.213-.129.512.145.626.239.1.438-.105.614-.255.75-.641,1.5-1.289,2.243-1.933,2.479-2.136,4.977-4.25,7.432-6.413a3.494,3.494,0,0,0-.013-5.6q-1.372-1.211-2.751-2.417-3.4-2.98-6.8-5.958c-.21-.183-.443-.485-.725-.358-.308.138-.136.512-.138.776-.015,2.026,0,4.052-.017,6.078a1.488,1.488,0,0,1-1.624,1.67,22.405,22.405,0,0,0-2.25.171,17.059,17.059,0,0,0-10.976,5.782A9.822,9.822,0,0,0,453.2,1162.339Z" transform="translate(-450.182 -1139.279)" fill="#3d3d3d"/>
      </g>
    </g>
  </g>
</svg>
