<svg xmlns="http://www.w3.org/2000/svg" width="56.821" height="56.821" viewBox="0 0 56.821 56.821"><defs><style>.a{fill:#0880f8;}.b{fill:#3d3d3d;stroke:#3d3d3d;stroke-width:0.5px;}</style></defs><g transform="translate(-135.75 -74.75)"><g transform="translate(136 75)"><rect class="a" width="17" height="19" rx="1" transform="translate(17 35.159)"/><path class="b" d="M56.312,13.922a1.653,1.653,0,0,0-.365-.883c-.082-.1.758.746-12.541-12.553A1.663,1.663,0,0,0,42.239,0H4.949A4.956,4.956,0,0,0,0,4.953V51.374a4.956,4.956,0,0,0,4.95,4.95H51.37a4.956,4.956,0,0,0,4.95-4.95c0-40.061,0-37.325-.008-37.452ZM30.91,3.3v12.43H15.619a1.652,1.652,0,0,1-1.65-1.65V3.3ZM13.969,53.2V33.224a1.652,1.652,0,0,1,1.65-1.65H36.3a1.652,1.652,0,0,1,1.65,1.65V53.2Zm0-.18h0Zm39.051-1.65a1.652,1.652,0,0,1-1.65,1.65H41.25v-19.8a4.956,4.956,0,0,0-4.95-4.95H15.619a4.956,4.956,0,0,0-4.95,4.95v19.8H4.949a1.652,1.652,0,0,1-1.65-1.65V4.953A1.652,1.652,0,0,1,4.949,3.3h5.72v10.78a4.956,4.956,0,0,0,4.95,4.95H36.3a4.956,4.956,0,0,0,4.95-4.95V3.3h.307L53.02,14.767Z" transform="translate(0.001 -0.003)"/></g></g></svg>