<svg xmlns="http://www.w3.org/2000/svg" width="50.785" height="57.52" viewBox="0 0 50.785 57.52"><defs><style>.a{fill:#f00044;}.b{fill:#08fff9;}</style></defs><g transform="translate(-29.8 -1)"><g transform="translate(36.455 3.595)"><path class="a" d="M117.505,216.072a8.1,8.1,0,0,0-4.208,15.082A7.971,7.971,0,0,1,112,226.9a8.161,8.161,0,0,1,8.212-8.235,8.482,8.482,0,0,1,2.583.406v-9.081a17.866,17.866,0,0,0-2.583-.192h-.124v6.678A8.483,8.483,0,0,0,117.505,216.072Z" transform="translate(-106.98 -188.841)"/><path class="a" d="M338.614,24H336.2a13.871,13.871,0,0,0,5.245,8.359A13.972,13.972,0,0,1,338.614,24Z" transform="translate(-308.292 -24)"/><path class="a" d="M132.93,144.548a14.047,14.047,0,0,1-2.595-.248v6.509a22.376,22.376,0,0,1-8.844-1.794,23.1,23.1,0,0,1-5.031-2.933l.045,20.068a16.789,16.789,0,0,1-5.031,11.935,17.112,17.112,0,0,1-9.566,4.783,17.858,17.858,0,0,1-2.583.192A17.133,17.133,0,0,1,88.8,179.5a15.288,15.288,0,0,0,1.094,1.184,17.191,17.191,0,0,0,12.149,4.975,17.849,17.849,0,0,0,2.583-.192,17.112,17.112,0,0,0,9.566-4.783,16.788,16.788,0,0,0,5.031-11.935l-.169-20.068a22.158,22.158,0,0,0,5.031,2.933,22.658,22.658,0,0,0,8.844,1.794" transform="translate(-88.8 -130.729)"/></g><path class="b" d="M37.516,194.392a17.167,17.167,0,0,1,12.048-5v-2.4a17.866,17.866,0,0,0-2.583-.192,17.15,17.15,0,0,0-12.172,5,16.859,16.859,0,0,0,.023,24.005,17.182,17.182,0,0,0,1.613,1.41A16.8,16.8,0,0,1,32.5,206.394,17.008,17.008,0,0,1,37.516,194.392Z" transform="translate(0 -164.841)"/><path class="b" d="M391.17,103.312V100.9h-.023a13.767,13.767,0,0,1-8.348-2.8A13.781,13.781,0,0,0,391.17,103.312Z" transform="translate(-313.18 -86.146)"/><path class="b" d="M151.253,49.642a8.476,8.476,0,0,0,3.046-.395,8.13,8.13,0,0,0,5.629-7.7l.011-13.424V3.595h6.453A14.047,14.047,0,0,1,166.12,1h-8.889V25.513l-.011,13.424a8.13,8.13,0,0,1-5.629,7.7,8.005,8.005,0,0,1-3.046.395A8.276,8.276,0,0,1,144.8,45.9,8.229,8.229,0,0,0,151.253,49.642Z" transform="translate(-102.028)"/><path d="M70.856,76.139a17.112,17.112,0,0,0,9.566-4.783,16.789,16.789,0,0,0,5.031-11.935l-.045-20.068a22.161,22.161,0,0,0,5.031,2.933,22.657,22.657,0,0,0,8.844,1.794V37.571a13.781,13.781,0,0,1-8.37-5.212A13.82,13.82,0,0,1,85.667,24H79.2V48.513l-.011,13.424a8.13,8.13,0,0,1-5.629,7.7,8.006,8.006,0,0,1-3.046.395A8.23,8.23,0,0,1,64.065,66.3,8.1,8.1,0,0,1,68.273,51.22a8.481,8.481,0,0,1,2.583.406V44.948a17.167,17.167,0,0,0-12.048,5A16.9,16.9,0,0,0,53.8,61.937a16.681,16.681,0,0,0,3.948,10.818A17.157,17.157,0,0,0,68.273,76.32,16.39,16.39,0,0,0,70.856,76.139Z" transform="translate(-21.293 -20.405)"/></g></svg>