<svg xmlns="http://www.w3.org/2000/svg" width="125.071" height="141.656" viewBox="0 0 125.071 141.656"><defs><style>.a,.b{fill:#f5f5f5;}.b{opacity:0.39;}</style></defs><g transform="translate(-29.8 -1)"><g transform="translate(46.191 7.39)"><path class="a" d="M129.519,225.246a19.939,19.939,0,0,0-10.362,37.143,19.631,19.631,0,0,1-3.195-10.474,20.1,20.1,0,0,1,20.225-20.28,20.89,20.89,0,0,1,6.362,1V210.272a44,44,0,0,0-6.362-.472h-.306v16.446A20.891,20.891,0,0,0,129.519,225.246Z" transform="translate(-103.599 -158.183)"/><path class="b" d="M342.145,24H336.2a34.161,34.161,0,0,0,12.918,20.586A34.41,34.41,0,0,1,342.145,24Z" transform="translate(-267.469 -24)"/><path class="b" d="M197.48,144.911a34.594,34.594,0,0,1-6.39-.611v16.03a55.107,55.107,0,0,1-21.78-4.417,56.9,56.9,0,0,1-12.39-7.223l.111,49.423A41.347,41.347,0,0,1,144.64,227.5a42.143,42.143,0,0,1-23.558,11.779,43.979,43.979,0,0,1-6.362.472,42.2,42.2,0,0,1-25.92-8.779,37.648,37.648,0,0,0,2.695,2.917,42.337,42.337,0,0,0,29.92,12.252,43.959,43.959,0,0,0,6.362-.472,42.142,42.142,0,0,0,23.558-11.779,41.346,41.346,0,0,0,12.39-29.392l-.417-49.423A54.568,54.568,0,0,0,175.7,162.3a55.8,55.8,0,0,0,21.78,4.417" transform="translate(-88.8 -110.879)"/></g><path class="b" d="M48.8,205.5a42.277,42.277,0,0,1,29.67-12.307v-5.917a44,44,0,0,0-6.362-.472,42.237,42.237,0,0,0-29.976,12.307,41.519,41.519,0,0,0,.056,59.118,42.313,42.313,0,0,0,3.973,3.473,41.38,41.38,0,0,1-9.723-26.642A41.885,41.885,0,0,1,48.8,205.5Z" transform="translate(0 -134.182)"/><path class="a" d="M403.414,110.935V104.99h-.056A33.9,33.9,0,0,1,382.8,98.1,33.939,33.939,0,0,0,403.414,110.935Z" transform="translate(-254.933 -70.124)"/><path class="a" d="M160.691,120.792a20.873,20.873,0,0,0,7.5-.972,20.021,20.021,0,0,0,13.863-18.975l.028-33.06V7.39h15.891A34.594,34.594,0,0,1,197.306,1H175.415V61.369l-.028,33.06A20.021,20.021,0,0,1,161.524,113.4a19.715,19.715,0,0,1-7.5.972,20.382,20.382,0,0,1-9.223-2.806A20.266,20.266,0,0,0,160.691,120.792Z" transform="translate(-83.052 0)"/><path class="a" d="M95.8,152.4a42.143,42.143,0,0,0,23.558-11.779,41.346,41.346,0,0,0,12.39-29.393l-.111-49.423a54.578,54.578,0,0,0,12.39,7.223,55.8,55.8,0,0,0,21.78,4.417V57.421A33.938,33.938,0,0,1,145.2,44.586,34.035,34.035,0,0,1,132.282,24H116.363V84.369l-.028,33.06A20.021,20.021,0,0,1,102.472,136.4a19.716,19.716,0,0,1-7.5.972,20.269,20.269,0,0,1-15.891-9.2A19.939,19.939,0,0,1,89.443,91.036a20.886,20.886,0,0,1,6.362,1V75.59A42.278,42.278,0,0,0,66.135,87.9,41.611,41.611,0,0,0,53.8,117.428a41.08,41.08,0,0,0,9.723,26.642,42.254,42.254,0,0,0,25.92,8.779A40.363,40.363,0,0,0,95.8,152.4Z" transform="translate(-17.332 -16.61)"/></g></svg>