<svg xmlns="http://www.w3.org/2000/svg" width="149.343" height="149.789" viewBox="0 0 149.343 149.789"><defs><style>.a{opacity:0.03;}.b{stroke:#3d3d3d;stroke-width:0.5px;}</style></defs><g class="a" transform="translate(390.007 -229.952)"><g transform="translate(-390.007 229.952)"><path d="M63.853,144.988c.057-.976-.035-1.962.014-2.938a2.338,2.338,0,0,0-1.611-2.584c-1.168-.495-1.768.039-2.571.679-6.763,5.391-6.769,5.377-12.5-1.47-.99-1.181-1.885-2.457-2.978-3.532-2.764-2.719-2.866-5.211.252-7.749.9-.728,2.021-1.46,1.212-3.136-.741-1.541-1.934-1.471-3.153-1.361-4.231.385-5.856-1.541-5.585-5.688.212-3.206.131-6.441.021-9.658-.112-3.327,1.244-5.045,4.688-4.843.184.011.371,0,.555,0a4.3,4.3,0,0,1,.707.011c1.676.2,2.948-.576,2.958-2.163.013-1.559-1.087-1.4-2.046-1.248a5.321,5.321,0,0,1-.809.1c-6.162-.056-12.323-.053-18.486-.053q-4.618.005-9.24,0C5.287,99.319.01,94.038,0,84.04c-.015-22.265.024-46.4.039-68.666C.046,5.313,5.277.017,15.24.01Q44.649-.016,74.053,0C93.659,0,114.677.449,134.28.47c9.708.01,15.047,5.356,15.057,15.1.021,22.4-.019,46.68-.039,69.083-.01,9.725-5.367,15.12-15.018,15.149-4.554.01-9.442-.1-14.343-.212-5.191-.116-10.39-.237-15.215-.2a6.265,6.265,0,0,1-.758-.071c-.89-.12-1.89-.237-1.972,1-.1,1.481.972,2.284,2.722,2.443,6.208.573,6.2.658,6.2,7.056,0,2.659-.1,5.324.021,7.979.163,3.507-1.229,5.278-4.893,5.112-1.439-.064-3.079-.513-3.895,1.5-.778,1.916.791,2.549,1.7,3.38,2.486,2.266,2.5,4.377.266,6.844-2.351,2.588-4.517,5.346-6.738,8.053-2.008,2.45-4.083,2.722-6.339.325-.862-.919-1.792-1.771-2.672-2.676-.814-.838-1.531-1.439-2.9-.813a2.428,2.428,0,0,0-1.449,2.69c.02.98-.033,1.962.006,2.938.131,3.143-1.3,4.684-4.5,4.628-3.639-.06-7.284-.092-10.921.011q-.149,0-.3,0C65.129,149.79,63.669,148.268,63.853,144.988Zm6.653-4.681c-.088,2.8,1.348,2.75,3.349,2.779,2.2.032,3.914-.046,3.467-3.019-.972-6.476,5.324-5.805,8.4-8.184,2.567-1.99,4.214.742,5.957,2.259,1,.87,1.9,3,3.465.686,1.009-1.492,3.91-2.62,1.166-5.056-1.633-1.453-3.152-3.164-1.523-5.412,2.121-2.927,1.566-8.333,7.078-8.156,2.791.089,2.346-1.647,2.326-3.277-.025-1.708.618-3.62-2.471-3.567-5.442.1-4.872-5.342-7-8.276-1.629-2.252.09-3.914,1.655-5.391,2.658-2.517-.417-3.564-1.354-5.066-1.336-2.153-2.224-.234-3.157.551-1.739,1.46-3.3,4.426-5.887,2.559-3.245-2.337-9.619-1.778-8.662-8.428.4-2.74-1.19-2.92-3.245-2.786-.29.018-.594.014-.894.014-1.513,0-2.984-.011-2.581,2.521,1.06,6.657-5.2,6.261-8.463,8.576-2.878,2.043-4.448-1-6.218-2.605-1.048-.948-2.026-2.291-3.184-.272-.826,1.446-3.514,2.206-1.42,4.8,3.9,4.843.551,12.893-5.777,13.8-2.648.378-1.817,2.079-1.768,3.352.05,1.251-1.068,3.617,1.623,3.373,4.423-.4,5.062,3.04,6.593,5.784,1.708,3.065,2.469,5.646-.77,8.47-2.35,2.05.828,3.214,1.7,4.652,1.1,1.831,1.992.385,2.894-.4,1.435-1.255,2.425-3.157,4.157-3.27h.082C64.3,131.32,70.627,136.766,70.507,140.307ZM73.989,8.6c-19.734,0-38.06.438-57.794.47-5.593.011-8.033,2.369-8.043,7.849-.039,22.816,0,43.763.039,66.579.006,5.25,2.464,7.658,7.743,7.7,2.775.025,5.323-.106,7.827-.24a85.315,85.315,0,0,1,11.327-.078c5.476.417,8.951.392,12.2-3.91,5.358-7.1,5.632-6.916,12.386-1.587.821.646,1.447,1.114,2.585.658a2.311,2.311,0,0,0,1.609-2.585c-.045-.976.043-1.962-.014-2.937-.19-3.412,1.439-4.861,4.8-4.723,2.655.113,5.317.021,7.98.021,6.977,0,6.992,0,7.381,7.162.071,1.283.008,2.4,1.548,3.058,1.634.7,2.3-.386,3.185-1.216q1.22-1.151,2.383-2.365c2.089-2.2,4.09-2.122,6.028.194a76.458,76.458,0,0,1,5.593,6.8c1.771,2.7,4.051,1.446,7.1,1.368,5.124-.134,10.253-.109,15.378-.088q3.438.016,6.876.022c6.969-.011,9.093-2.079,9.1-8.909.011-22.117-.028-42.363-.039-64.48,0-6.61-2.167-8.76-8.807-8.763q-13.221-.01-26.444-.009Q89.948,8.592,73.989,8.6ZM73.85,129.585a16.844,16.844,0,1,1,.083,0ZM63.879,112.4a10.069,10.069,0,1,0,10.138-9.672h-.079A10.078,10.078,0,0,0,63.879,112.4Z" transform="translate(0 0)"/><g transform="translate(60.123 23.64)"><path class="b" d="M-320.9,292.287c0-5.714-.082-11.43.024-17.142.095-5.083,2.518-6.491,6.748-3.893q13.609,8.358,27.092,16.92c4.174,2.656,4.218,5.5.09,8.135q-13.66,8.712-27.488,17.16c-3.741,2.286-6.285.872-6.412-3.574-.167-5.864-.041-11.736-.041-17.605Zm7.647-11.533v23.034c5.748-3.573,10.949-6.832,16.182-10.042,1.68-1.03,1.759-1.869.023-2.933C-302.282,287.6-307.485,284.339-313.25,280.754Z" transform="translate(320.929 -269.976)"/></g></g></g></svg>