<svg xmlns="http://www.w3.org/2000/svg" width="57.836" height="58.009" viewBox="0 0 57.836 58.009"><defs><style>.a{fill:#3d3d3d;}.b{fill:#077ef5;}</style></defs><g transform="translate(390.007 -210.8)"><g transform="translate(-4.022 -27.424)"><path class="a" d="M24.729,56.15c.021-.378-.014-.76,0-1.139a.9.9,0,0,0-.624-1c-.452-.192-.685.014-1,.263-2.618,2.088-2.623,2.083-4.843-.571-.382-.457-.73-.95-1.153-1.366-1.07-1.053-1.11-2.019.1-3,.346-.283.782-.565.469-1.214-.288-.6-.749-.57-1.22-.527-1.64.149-2.27-.6-2.164-2.2.082-1.242.05-2.495.008-3.74-.044-1.29.481-1.954,1.815-1.876.07,0,.142,0,.213,0a1.862,1.862,0,0,1,.274,0c.65.076,1.143-.223,1.148-.838s-.421-.544-.794-.483a2.076,2.076,0,0,1-.313.037c-2.372-.022-4.745-.021-7.117-.02q-1.81,0-3.621,0C2.048,38.464,0,36.419,0,32.546c0-8.623.01-17.968.015-26.591C.018,2.057,2.045.007,5.9,0Q17.291-.006,28.679,0C36.272,0,44.411.175,52,.183c3.759,0,5.827,2.074,5.83,5.846.008,8.677-.007,18.077-.015,26.754,0,3.766-2.078,5.855-5.815,5.867-1.767,0-3.663-.039-5.562-.082-2.008-.046-4.019-.092-5.886-.08a2.291,2.291,0,0,1-.292-.028c-.346-.046-.733-.092-.764.388-.038.574.376.884,1.054.947,2.4.221,2.4.255,2.4,2.732,0,1.03-.038,2.063.01,3.091.063,1.357-.478,2.044-1.9,1.979-.556-.024-1.192-.2-1.508.582-.3.742.307.987.66,1.309a1.624,1.624,0,0,1,.1,2.651c-.91,1-1.75,2.07-2.609,3.118-.778.949-1.582,1.055-2.454.126-.334-.356-.695-.686-1.035-1.036-.315-.326-.593-.558-1.121-.315a.939.939,0,0,0-.562,1.041c.007.38-.013.76,0,1.139.05,1.218-.5,1.813-1.744,1.792-1.409-.023-2.821-.035-4.23,0l-.114,0C25.223,58.009,24.657,57.42,24.729,56.15Zm2.577-1.813c-.035,1.083.521,1.065,1.3,1.076.854.013,1.516-.018,1.343-1.17C29.569,51.736,32.007,52,33.2,51.075c.994-.77,1.633.288,2.307.875.387.337.735,1.163,1.343.265.391-.577,1.514-1.014.452-1.958-.633-.562-1.221-1.225-.59-2.1.821-1.133.607-3.227,2.741-3.159,1.083.035.91-.637.9-1.267-.009-.662.239-1.4-.957-1.382-2.107.038-1.886-2.069-2.709-3.206-.631-.872.034-1.515.64-2.088,1.03-.974-.162-1.379-.524-1.961-.518-.834-.86-.091-1.222.213-.674.565-1.277,1.715-2.281.992-1.256-.906-3.725-.689-3.353-3.264.153-1.062-.461-1.131-1.258-1.079-.113.007-.229.006-.346.006-.585,0-1.156,0-1,.975.41,2.578-2.012,2.425-3.278,3.323-1.115.791-1.723-.388-2.408-1.01-.406-.367-.785-.887-1.232-.105-.32.561-1.361.854-.551,1.859a3.433,3.433,0,0,1-2.237,5.345c-1.026.147-.7.8-.685,1.3s-.414,1.4.628,1.305c1.714-.156,1.961,1.178,2.553,2.241.661,1.186.957,2.185-.3,3.28-.911.795.32,1.244.657,1.8.429.709.772.149,1.12-.155.557-.486.941-1.223,1.61-1.266h.032C24.9,50.857,27.352,52.967,27.306,54.338ZM28.654,3.329c-7.643,0-14.739.17-22.383.183-2.165,0-3.11.917-3.114,3.039-.015,8.836,0,16.948.014,25.784,0,2.034.954,2.965,3,2.984,1.072.009,2.057-.042,3.026-.093a32.765,32.765,0,0,1,4.392-.032c2.121.161,3.466.153,4.725-1.514,2.075-2.748,2.181-2.678,4.8-.615.319.251.561.431,1,.256a.9.9,0,0,0,.623-1c-.017-.379.016-.76,0-1.138-.074-1.322.556-1.883,1.858-1.829,1.029.042,2.06.008,3.09.008,2.7,0,2.709,0,2.859,2.774.027.5,0,.929.6,1.184.632.27.892-.149,1.232-.47q.474-.446.923-.916a1.367,1.367,0,0,1,2.335.075,29.174,29.174,0,0,1,2.166,2.635c.685,1.047,1.57.56,2.749.528,1.986-.053,3.976-.043,5.965-.033.884,0,1.768.009,2.652.008,2.7,0,3.522-.8,3.524-3.45,0-8.565-.01-16.407-.015-24.971,0-2.561-.84-3.394-3.41-3.4l-8.694,0ZM28.6,49.352a5.676,5.676,0,1,1,.028,0Z" transform="translate(-385.984 238.224)"/><g transform="translate(-362.7 247.379)"><path class="b" d="M-320.917,278.617c0-2.213-.032-4.427.009-6.639.037-1.969.975-2.514,2.613-1.508q5.271,3.237,10.492,6.553c1.617,1.029,1.634,2.131.035,3.15q-5.29,3.374-10.645,6.646c-1.449.885-2.434.338-2.483-1.384-.065-2.271-.016-4.545-.016-6.818Z" transform="translate(320.929 -269.976)"/></g></g></g></svg>