<svg xmlns="http://www.w3.org/2000/svg" width="67.551" height="54.885" viewBox="0 0 67.551 54.885">
  <path id="twitter" d="M67.551,54.5a28.873,28.873,0,0,1-7.979,2.187,13.771,13.771,0,0,0,6.092-7.654,27.676,27.676,0,0,1-8.782,3.352,13.848,13.848,0,0,0-23.955,9.47,14.26,14.26,0,0,0,.321,3.158A39.2,39.2,0,0,1,4.7,50.525,13.852,13.852,0,0,0,8.959,69.034,13.676,13.676,0,0,1,2.7,67.328v.152A13.912,13.912,0,0,0,13.8,81.087a13.822,13.822,0,0,1-3.631.456,12.246,12.246,0,0,1-2.622-.236,13.98,13.98,0,0,0,12.94,9.647A27.826,27.826,0,0,1,3.314,96.86,25.94,25.94,0,0,1,0,96.67a38.987,38.987,0,0,0,21.245,6.215c25.484,0,39.416-21.11,39.416-39.407,0-.612-.021-1.2-.051-1.79A27.627,27.627,0,0,0,67.551,54.5Z" transform="translate(0 -48)" fill="#00b2ef"/>
</svg>
