<svg xmlns="http://www.w3.org/2000/svg" width="165.494" height="134.464" viewBox="0 0 165.494 134.464"><defs><style>.a{fill:#f5f5f5;}</style></defs><path class="a" d="M165.494,63.918a70.736,70.736,0,0,1-19.549,5.358,33.737,33.737,0,0,0,14.925-18.753,67.8,67.8,0,0,1-21.514,8.213,33.925,33.925,0,0,0-58.688,23.2,34.935,34.935,0,0,0,.786,7.737A96.033,96.033,0,0,1,11.523,54.185,33.937,33.937,0,0,0,21.949,99.531,33.506,33.506,0,0,1,6.62,95.352v.372A34.084,34.084,0,0,0,33.8,129.061a33.863,33.863,0,0,1-8.9,1.117,30,30,0,0,1-6.423-.579,34.251,34.251,0,0,0,31.7,23.635A68.172,68.172,0,0,1,8.12,167.7,63.551,63.551,0,0,1,0,167.238a95.515,95.515,0,0,0,52.048,15.225c62.433,0,96.566-51.717,96.566-96.545,0-1.5-.052-2.948-.124-4.386A67.684,67.684,0,0,0,165.494,63.918Z" transform="translate(0 -48)"/></svg>